<svg xmlns="http://www.w3.org/2000/svg" viewBox="0 0 720 400" role="img" aria-labelledby="title desc">
  <title id="title">Global network illustration</title>
  <desc id="desc">An abstract global network with linked nodes across a dotted world map.</desc>
  <defs>
    <linearGradient id="ocean" x1="0%" y1="0%" x2="100%" y2="100%">
      <stop offset="0%" stop-color="#0f172a" />
      <stop offset="100%" stop-color="#111827" />
    </linearGradient>
    <linearGradient id="link" x1="0%" y1="0%" x2="100%" y2="0%">
      <stop offset="0%" stop-color="#60a5fa" />
      <stop offset="100%" stop-color="#a855f7" />
    </linearGradient>
  </defs>
  <rect width="720" height="400" rx="28" fill="url(#ocean)" />
  <g fill="#334155">
    <ellipse cx="126" cy="164" rx="78" ry="42" />
    <ellipse cx="198" cy="204" rx="42" ry="26" />
    <ellipse cx="322" cy="140" rx="84" ry="36" />
    <ellipse cx="392" cy="184" rx="68" ry="34" />
    <ellipse cx="512" cy="150" rx="78" ry="34" />
    <ellipse cx="580" cy="198" rx="54" ry="28" />
  </g>
  <g fill="#64748b">
    <circle cx="120" cy="150" r="7" />
    <circle cx="174" cy="194" r="7" />
    <circle cx="244" cy="152" r="8" />
    <circle cx="322" cy="128" r="8" />
    <circle cx="396" cy="182" r="8" />
    <circle cx="498" cy="148" r="8" />
    <circle cx="562" cy="182" r="8" />
    <circle cx="614" cy="204" r="7" />
  </g>
  <g fill="none" stroke="url(#link)" stroke-width="4" stroke-linecap="round" opacity="0.88">
    <path d="M120 150 C152 128 198 126 244 152" />
    <path d="M174 194 C216 220 262 206 322 128" />
    <path d="M244 152 C290 142 346 150 396 182" />
    <path d="M322 128 C390 98 458 106 498 148" />
    <path d="M396 182 C452 216 518 214 562 182" />
    <path d="M498 148 C534 144 580 166 614 204" />
  </g>
  <g fill="#ffffff">
    <circle cx="120" cy="150" r="4" />
    <circle cx="174" cy="194" r="4" />
    <circle cx="244" cy="152" r="4" />
    <circle cx="322" cy="128" r="4" />
    <circle cx="396" cy="182" r="4" />
    <circle cx="498" cy="148" r="4" />
    <circle cx="562" cy="182" r="4" />
    <circle cx="614" cy="204" r="4" />
  </g>
</svg>
